# xmcd
# Copyright (C) 1995-1998 Ti Kan
#
# Track frame offsets:
#       150
#       17210
#       34947
#       51353
#       69222
#       75526
#       95853
#       116292
#       130936
#       144579
#       157524
#       182516
#       195950
#
# Disc length: 2833 seconds
#
# Revision: 0
# Processed by: cddbd v1.5.2PL0 Copyright (c) Steve Scherf et al.
# Submitted via: CD-Import v1.0
#
DISCID=a00b0f0d
DTITLE=340 Ml - Sorry For The Delay
DYEAR=1900
DGENRE=
TTITLE0=Regents Park
TTITLE1=The Other Side
TTITLE2=Fairy Tales
TTITLE3=Make It Happen
TTITLE4=Moodswings
TTITLE5=The Untitled Song
TTITLE6=Kubrick
TTITLE7=Saint- Leu
TTITLE8=Lesson One
TTITLE9=Australopithecus
TTITLE10=Sorry For The Delay
TTITLE11=Radio
TTITLE12=340 Ml
EXTD=
EXTT0=
EXTT1=
EXTT2=
EXTT3=
EXTT4=
EXTT5=
EXTT6=
EXTT7=
EXTT8=
EXTT9=
EXTT10=
EXTT11=
EXTT12=
PLAYORDER=
